#N canvas 536 80 199 115 12;
#X floatatom 15 67 5 0 0 2 num_secs num_secs_init num_secs 0;
#X obj 15 26 bng 19 250 50 0 start empty start 0 -10 0 12 #fcfcfc #000000 #000000;
#X floatatom 80 67 5 0 0 2 frequency frequency_init frequency 0;
#N canvas 295 333 417 273 drone 0;
#N canvas 92 130 450 300 timer 0;
#X obj 36 15 inlet;
#X obj 209 51 inlet;
#X obj 38 89 metro 1000;
#X obj 38 113 bng 19 250 50 0 empty empty empty 0 -10 0 12 #fcfcfc #000000 #000000;
#X obj 38 137 f;
#X obj 38 161 + 1;
#X msg 80 116 0;
#X floatatom 38 185 5 0 0 0 - - - 0;
#X text 204 22 number of seconds;
#X obj 85 216 sel 900;
#X msg 36 39 1;
#X obj 36 63 tgl 19 0 empty empty empty 0 -10 0 12 #fcfcfc #000000 #000000 0 1;
#X obj 17 246 outlet;
#X obj 93 248 outlet;
#X msg 84 38 0;
#X obj 117 10 r metrostop;
#X obj 150 249 s metrostop;
#X connect 0 0 10 0;
#X connect 1 0 9 1;
#X connect 2 0 3 0;
#X connect 3 0 4 0;
#X connect 4 0 5 0;
#X connect 5 0 4 1;
#X connect 5 0 7 0;
#X connect 6 0 4 1;
#X connect 7 0 9 0;
#X connect 7 0 12 0;
#X connect 9 0 13 0;
#X connect 9 0 16 0;
#X connect 10 0 11 0;
#X connect 11 0 2 0;
#X connect 14 0 11 0;
#X connect 15 0 14 0;
#X connect 15 0 6 0;
#X restore 34 72 pd timer;
#X floatatom 34 96 5 0 0 0 - - - 0;
#X obj 34 48 bng 19 250 50 0 empty start empty 0 -10 0 12 #fcfcfc #000000 #000000;
#X obj 88 96 bng 19 250 50 0 stop empty empty 0 -10 0 12 #fcfcfc #000000 #000000;
#X obj 193 36 osc~ 60;
#X obj 192 198 *~;
#X msg 245 162 \$1 50;
#X obj 245 186 line~;
#X obj 82 46 r num_secs;
#X obj 245 138 line;
#X obj 192 222 dac~;
#X obj 235 70 r start;
#X msg 235 94 0.5 1000;
#X obj 310 70 r stop;
#X msg 310 94 0 1000;
#X obj 193 12 r frequency;
#N canvas 939 209 348 169 init 0;
#X obj 20 43 loadbang;
#X obj 20 67 t b b b, f 28;
#X obj 220 124 s frequency_init;
#X obj 106 124 s num_secs_init;
#X msg 20 91 \; pd dsp 1;
#X msg 106 96 900;
#X msg 220 96 60;
#X connect 0 0 1 0;
#X connect 1 0 4 0;
#X connect 1 1 5 0;
#X connect 1 2 6 0;
#X connect 5 0 3 0;
#X connect 6 0 2 0;
#X restore 34 155 pd init;
#X connect 0 0 1 0;
#X connect 0 1 3 0;
#X connect 2 0 0 0;
#X connect 4 0 5 0;
#X connect 5 0 10 0;
#X connect 5 0 10 1;
#X connect 6 0 7 0;
#X connect 7 0 5 1;
#X connect 8 0 0 1;
#X connect 9 0 6 0;
#X connect 11 0 12 0;
#X connect 12 0 9 0;
#X connect 13 0 14 0;
#X connect 14 0 9 0;
#X connect 15 0 4 0;
#X restore 80 26 pd drone;
